inDegrees=yes
name=ik_S42_A08_T01
DataType=double
version=3
OpenSimVersion=4.3-2021-08-27-4bc7ad9
endheader
time	pelvis_tilt	pelvis_list	pelvis_rotation	pelvis_tx	pelvis_ty	pelvis_tz	hip_flexion_r	hip_adduction_r	hip_rotation_r	knee_angle_r	knee_angle_r_beta	ankle_angle_r	subtalar_angle_r	mtp_angle_r	hip_flexion_l	hip_adduction_l	hip_rotation_l	knee_angle_l	knee_angle_l_beta	ankle_angle_l	subtalar_angle_l	mtp_angle_l	lumbar_extension	lumbar_bending	lumbar_rotation	arm_flex_r	arm_add_r	arm_rot_r	elbow_flex_r	pro_sup_r	wrist_flex_r	wrist_dev_r	arm_flex_l	arm_add_l	arm_rot_l	elbow_flex_l	pro_sup_l	wrist_flex_l	wrist_dev_l
0	0	0	0	0	0.9399999999999999	0	0	0	0	0	0	0	0	0	0	0	0	0	0	0	0	0	0	0	0	0	0	0	0	89.99999999963507	0	0	0	0	0	0	89.99999999869995	0	0
0.02	-10.893055823679	-0.6079960147893995	26.274048607574	0	0.9399999999999999	0	3.726456136710899	-1.744619845619014	-1.254417638005089	5.713851515106841	0.09972552190868089	0	0	0	3.726456136710899	-1.744619845619014	-1.254417638005089	5.713851515106841	0.09972552190868089	0	0	0	-7.082286374884474	-3.484188510666287	1.393703697427244	35.37748836268425	-6.087085010355697	7.236853802863629	57.88151731120833	124.1832049501769	0	0	31.59488027429035	0.2849523423934283	3.50260806419733	51.42263828311975	117.2049793236201	0	0
0.04	-9.977439432540503	-1.517313000370404	26.68774942941572	0	0.9399999999999999	0	40.52644638544916	-12.39313253816258	-11.06128285004008	55.49551474708132	0.9685794524256373	0	0	0	40.52644638544916	-12.39313253816258	-11.06128285004008	55.49551474708132	0.9685794524256373	0	0	0	-7.511052139750587	-2.20276170091967	1.15172005671378	35.38123100456896	-6.07581298796508	7.241381141790189	57.89033083108088	124.1949423905876	0	0	31.60431198099627	0.3033009947226365	3.489205363114855	51.42047778700388	117.225254419823	0	0
0.06	-9.981126417963027	-1.503618964203527	26.67835156673766	0	0.9399999999999999	0	40.54036662178068	-12.36813082763331	-11.05405972844293	55.49448106640411	0.9685614112944058	0	0	0	40.54036662178068	-12.36813082763331	-11.05405972844293	55.49448106640411	0.9685614112944058	0	0	0	-7.512894175654551	-2.177360724664454	1.153174454776879	35.38551039277618	-6.114817293548405	7.269363437123324	57.92612027699533	124.1339561676147	0	0	31.57147350995218	0.2635032289814039	3.514596172248724	51.486842348415	117.138408114707	0	0
0.08	-9.98753856064813	-1.484418724205076	26.67749855395742	0	0.9399999999999999	0	40.54679650085539	-12.35114702000554	-11.04986900620805	55.49404092832939	0.9685537294358384	0	0	0	40.54679650085539	-12.35114702000554	-11.04986900620805	55.49404092832939	0.9685537294358384	0	0	0	-7.512190582292736	-2.151914125344993	1.151483272496839	35.39776163222529	-6.115098865587967	7.264123987123228	57.92204281309505	124.1465551242451	0	0	31.55614795587495	0.2728068243276229	3.478052635198511	51.50934129390858	117.111608188122	0	0
0.1	-9.987187752820212	-1.465370336870882	26.67535482437398	0	0.9399999999999999	0	40.54884111363931	-12.34480206240471	-11.04840009702883	55.49390626088684	0.9685513790455706	0	0	0	40.54884111363931	-12.34480206240471	-11.04840009702883	55.49390626088684	0.9685513790455706	0	0	0	-7.50402393666886	-2.133412435894313	1.151516233571167	35.3945984009947	-6.12476211226287	7.254491471587152	57.89431066043127	124.1509084483362	0	0	31.54420421494216	0.2705959644863813	3.456564717828501	51.51356560695587	117.1071083838737	0	0
0.12	-9.987383497872315	-1.455691171339076	26.67107501485503	0	0.9399999999999999	0	40.55608714419805	-12.32670033395387	-11.04383114617653	55.49340418647962	0.9685426161940748	0	0	0	40.55608714419805	-12.32670033395387	-11.04383114617653	55.49340418647962	0.9685426161940748	0	0	0	-7.502162797411611	-2.119015959298383	1.151697822217571	35.40216710703471	-6.130214234037356	7.23951070662006	57.89097158458236	124.1421815927471	0	0	31.53739082967895	0.272610901371402	3.449798729768064	51.53897387746997	117.0818799093995	0	0
0.14	-9.990677008462702	-1.4401065802729	26.66950792379276	0	0.9399999999999999	0	40.55696970128029	-12.32150123650464	-11.04280501954976	55.49336252384393	0.9685418890439068	0	0	0	40.55696970128029	-12.32150123650464	-11.04280501954976	55.49336252384393	0.9685418890439068	0	0	0	-7.498400194001102	-2.103137480350946	1.152812501912825	35.42721746031057	-6.084900681162497	7.228483787200482	57.84435568425202	124.2074543133603	0	0	31.52802193946141	0.2962146432273008	3.446944583549738	51.53843745068678	117.0675264348127	0	0
0.16	-9.990126259630356	-1.434432562488712	26.66288507555213	0	0.9399999999999999	0	40.567249120105	-12.30291327866869	-11.0374441678751	55.49260071109234	0.968528592903108	0	0	0	40.567249120105	-12.30291327866869	-11.0374441678751	55.49260071109234	0.968528592903108	0	0	0	-7.498738665083112	-2.090068841099151	1.154560479237508	35.43172233127479	-6.110494223648382	7.253783398003728	57.87203375891448	124.1798445795094	0	0	31.52592997237749	0.2824000004328041	3.479736786370514	51.59174898414492	117.012068566622	0	0
0.18	-9.992647809298303	-1.418134375752598	26.66673271596717	0	0.9399999999999999	0	40.57177070551955	-12.28903543562767	-11.03417702720377	55.49230609693875	0.9685234509161048	0	0	0	40.57177070551955	-12.28903543562767	-11.03417702720377	55.49230609693875	0.9685234509161048	0	0	0	-7.495056934026228	-2.071439147399089	1.158298990012167	35.43413371546507	-6.106504522217505	7.26140555881608	57.86582718463596	124.2116922386707	0	0	31.52829803750223	0.2830724982088554	3.496040772634786	51.60345751788752	117.0058625350472	0	0
0.2	-9.987864568719717	-1.407485710272832	26.67728814592492	0	0.9399999999999999	0	40.5808076189976	-12.27143931888421	-11.02925547831352	55.49164561711805	0.9685119233685905	0	0	0	40.5808076189976	-12.27143931888421	-11.02925547831352	55.49164561711805	0.9685119233685905	0	0	0	-7.489009896337044	-2.056765735661295	1.159156049700368	35.41905150138235	-6.091862522316696	7.284709174632297	57.88351715858619	124.1962153996555	0	0	31.53121369773276	0.3024949071537686	3.502067338966616	51.60761108523244	116.9732217475987	0	0
0.22	-9.979145448180946	-1.399409831325281	26.68441866462674	0	0.9399999999999999	0	40.58992759193523	-12.2533306586398	-11.02422809843529	55.49098196928593	0.9685003405288464	0	0	0	40.58992759193523	-12.2533306586398	-11.02422809843529	55.49098196928593	0.9685003405288464	0	0	0	-7.480686545966673	-2.045578041812103	1.155743093110887	35.38946277920765	-6.088326366122558	7.30613717855843	57.87779123181929	124.1972969814579	0	0	31.52294633979877	0.3076255344712602	3.484876977685934	51.62511545502564	116.9190096660276	0	0
0.24	-9.977659290258977	-1.391495422281907	26.68344569598105	0	0.9399999999999999	0	40.59517098699094	-12.24135001405369	-11.02109977785489	55.49061056091621	0.9684938582299253	0	0	0	40.59517098699094	-12.24135001405369	-11.02109977785489	55.49061056091621	0.9684938582299253	0	0	0	-7.477514915212907	-2.034633238889962	1.152607563632102	35.39318971142159	-6.097902254849883	7.311432764957709	57.89850708829371	124.1628052869616	0	0	31.58108563958238	0.3267398670194119	3.469011594685361	51.61964847430355	116.829306393953	0	0
0.26	-9.987271772631695	-1.380957601107401	26.7275435369263	0	0.9399999999999999	0	40.59637595266928	-12.23921850235649	-11.02047764223826	55.49052064446924	0.968492288891874	0	0	0	40.59637595266928	-12.23921850235649	-11.02047764223826	55.49052064446924	0.968492288891874	0	0	0	-7.482133365277214	-2.017253050958004	1.13389220729146	35.41256053442532	-6.113998649013421	7.280003155891443	57.89646177988482	124.2100188856587	0	0	31.85471112454172	0.3119030996574012	3.324501327935214	51.37535140406591	116.7897268751169	0	0
0.28	-9.995015492702592	-1.376866775413879	26.81658502441959	0	0.9399999999999999	0	40.59777204398679	-12.23674725211475	-11.0197564173849	55.49041659672469	0.9684904729161523	0	0	0	40.59777204398679	-12.23674725211475	-11.0197564173849	55.49041659672469	0.9684904729161523	0	0	0	-7.487889664264197	-2.007610462249515	1.124323631652398	35.41521024002032	-6.168450175246364	7.160573114137339	57.87649598756446	124.233817881271	0	0	32.18797495998297	0.1660220479384747	3.225490303396471	51.10640247815818	116.5287630666931	0	0
0.3	-9.989899416086322	-1.378928595150356	26.87912566918554	0	0.9399999999999999	0	40.59917238828923	-12.23428871864463	-11.01903677877586	55.49031149664593	0.9684886385737338	0	0	0	40.59917238828923	-12.23428871864463	-11.01903677877586	55.49031149664593	0.9684886385737338	0	0	0	-7.485296064058181	-2.00695967409587	1.096858412777639	35.3927716122186	-6.172693170034965	7.077489358394922	57.87676883142345	124.271714202369	0	0	32.53396599271652	-0.06641392698331421	3.271834991612235	51.01229577860236	115.8116521246925	0	0
0.32	-9.982071202155891	-1.384733970934846	26.95415346060429	0	0.9399999999999999	0	40.60261607817241	-12.22827617579731	-11.01727322122388	55.49005188149715	0.9684841074345996	0	0	0	40.60261607817241	-12.22827617579731	-11.01727322122388	55.49005188149715	0.9684841074345996	0	0	0	-7.480797932593578	-2.01129395477565	1.080466677812089	35.36998015385621	-6.177835970464735	7.024025520356259	57.86507334946553	124.2618272294441	0	0	32.77828937495397	-0.1703365616185483	3.513949300198274	51.45777809570349	114.1720103602644	0	0
0.34	-9.985740526234281	-1.401660939874768	27.1983838161885	0	0.9399999999999999	0	40.60498278462813	-12.22421173275903	-11.01607394356602	55.48987094554179	0.9684809495064433	0	0	0	40.60498278462813	-12.22421173275903	-11.01607394356602	55.48987094554179	0.9684809495064433	0	0	0	-7.493858217368039	-1.993932838512524	0.8973135405630596	35.38438819947444	-6.137583758491949	6.898045840962034	57.82970102671771	124.325095679852	0	0	32.99854716085087	-0.4677550383236071	3.688621232469289	52.24922941500826	111.9581861244876	0	0
0.36	-9.986743480414372	-1.404123368689945	27.39256452644716	0	0.9399999999999999	0	40.60727913084087	-12.22016791463468	-11.01489066478934	55.48969968291516	0.968477960409723	0	0	0	40.60727913084087	-12.22016791463468	-11.01489066478934	55.48969968291516	0.968477960409723	0	0	0	-7.501736839187434	-1.962366569159439	0.6763790401695464	35.3831420070047	-6.121382047327788	6.923976378330236	57.78507156034539	124.3263615752801	0	0	33.01231237685585	-1.930020385426716	3.670230682476029	54.41730061028507	109.4755629088197	0	0
0.3800000000000001	-9.980700795229126	-1.412636563067085	27.6001391311303	0	0.9399999999999999	0	40.6108537337248	-12.21386096706818	-11.01304586653131	55.48943393278576	0.9684733221949774	0	0	0	40.6108537337248	-12.21386096706818	-11.01304586653131	55.48943393278576	0.9684733221949774	0	0	0	-7.504035747191036	-1.952114274898983	0.5429296508958656	35.38819279521107	-6.098840425680272	6.871146700976217	57.71142894734971	124.3486371986738	0	0	32.98568910437202	-2.898081337910849	3.677020528022683	56.69367677241209	107.9799535687309	0	0
0.4000000000000001	-10.00355402094143	-1.447655162133694	27.38013201245155	0	0.9399999999999999	0	40.61432680550887	-12.20780458742314	-11.01126668444937	55.48917323924687	0.968468772234385	0	0	0	40.61432680550887	-12.20780458742314	-11.01126668444937	55.48917323924687	0.968468772234385	0	0	0	-7.537826000445444	-1.998905653283208	0.7143438332890458	35.47918227943163	-6.029057436906307	6.888697522520985	57.69960512651182	124.2981786380156	0	0	33.0884360067711	-3.18365457064632	4.015744235007802	60.21055305444138	106.1975342059381	0	0
0.4200000000000001	-10.02010596434831	-1.448795977969066	27.65280382010912	0	0.9399999999999999	0	40.61686950483079	-12.20337915129469	-11.00996531680624	55.48898235565872	0.9684654406872838	0	0	0	40.61686950483079	-12.20337915129469	-11.00996531680624	55.48898235565872	0.9684654406872838	0	0	0	-7.559721041940371	-1.953493566506886	0.4368754793408114	35.50910443144105	-6.080325229032845	6.890566052765151	57.70196140030023	124.244092519385	0	0	33.21460004986704	-4.312127873865965	3.919595915211479	63.72610326404666	103.8375913219208	0	0
0.4400000000000001	-10.04291384004729	-1.460142812858258	27.45749454258931	0	0.9399999999999999	0	40.62006950297032	-12.19783346108406	-11.00833180478423	55.48874139230593	0.9684612350834011	0	0	0	40.62006950297032	-12.19783346108406	-11.00833180478423	55.48874139230593	0.9684612350834011	0	0	0	-7.582114965905316	-1.982426759647685	0.6259568479790443	35.52765692957833	-6.158096680676184	6.869150626585589	57.76723655957916	124.169823362359	0	0	33.35092253887809	-4.668789235536509	4.200709532596476	67.05366864528951	101.5807444059146	0	0
